<svg width="20" height="20" xmlns="http://www.w3.org/2000/svg">
 <!-- Created with Method Draw - http://github.com/duopixel/Method-Draw/ -->
 <g>
  <title>background</title>
  <rect fill="none" id="canvas_background" height="22" width="22" y="-1" x="-1"/>
  <g display="none" overflow="visible" y="0" x="0" height="100%" width="100%" id="canvasGrid">
   <rect fill="url(#gridpattern)" stroke-width="0" y="0" x="0" height="100%" width="100%"/>
  </g>
 </g>
 <g>
  <title>Layer 1</title>
  <path stroke="#000000" id="svg_18" d="m8.91707,4.37428l0,-1.69953l-5.88802,5.26401l5.88802,5.26406l0,-1.82362c1.59775,-0.00116 4.4027,0.21027 4.4027,1.70872c0,2.09368 -2.92945,3.21059 -2.92945,3.21059l0,1.60528c0,0 6.58063,0.34817 6.58063,-7.39792c0,-6.08564 -5.63606,-6.31432 -8.05388,-6.13159z" stroke-opacity="null" stroke-width="0" fill="#000000"/>
  <path id="svg_19" d="m37.21449,10.13063l0,-0.10628l-0.57014,0.3292l0.57014,0.3292l0,-0.11405c0.15471,-0.00007 0.42632,0.01315 0.42632,0.10686c0,0.13093 -0.28366,0.20078 -0.28366,0.20078l0,0.10039c0,0 0.6372,0.02177 0.6372,-0.46265c0,-0.38058 -0.54574,-0.39488 -0.77986,-0.38346z" stroke-opacity="null" stroke-width="1.5" stroke="#000000" fill="#000000"/>
  <path id="svg_20" d="m33.91159,4.68084l0,-0.10628l-0.57014,0.3292l0.57014,0.3292l0,-0.11405c0.15471,-0.00007 0.42632,0.01315 0.42632,0.10686c0,0.13093 -0.28366,0.20078 -0.28366,0.20078l0,0.10039c0,0 0.6372,0.02177 0.6372,-0.46265c0,-0.38058 -0.54574,-0.39488 -0.77986,-0.38346z" stroke-opacity="null" stroke-width="1.5" stroke="#000000" fill="#000000"/>
 </g>
</svg>