<svg width="20" height="20" xmlns="http://www.w3.org/2000/svg">
 <!-- Created with Method Draw - http://github.com/duopixel/Method-Draw/ -->

 <g>
  <title>background</title>
  <rect fill="none" id="canvas_background" height="22" width="22" y="-1" x="-1"/>
  <g display="none" overflow="visible" y="0" x="0" height="100%" width="100%" id="canvasGrid">
   <rect fill="url(#gridpattern)" stroke-width="0" y="0" x="0" height="100%" width="100%"/>
  </g>
 </g>
 <g>
  <title>Layer 1</title>
  <!-- Created with Method Draw - http://github.com/duopixel/Method-Draw/ -->
  <g stroke="null" id="svg_23">
   <g stroke="null" transform="matrix(1.0551912385048603,0,0,1.6343258426018419,45.18854672753535,37.595529409621214) " id="svg_20">
    <title stroke="null" transform="translate(1.5905379056930542,-1.2836498022079468) translate(-5.386195182800293,-4.17307186126709) translate(-0.2211635559797287,-0.1427927315235138) translate(0.8846542239189148,0.856756329536438) translate(6.297701358795166,0.33883896470069885) translate(-5.475725173950195,0) translate(-8.921743392944336,-5.082584381103516) translate(-7.242325782775879,-24.841026306152344) translate(4.1126933097839355,-0.18966658413410187) translate(-9.694206237792969,15.742326736450195) translate(-7.165840148925781,-14.34238338470459) translate(-89.38347625732422,-30.92467498779297) translate(88.97490692138672,42.397438049316406) translate(0.23999999463558197,-2.5) translate(0.10000000149011612,2.6500000953674316) translate(-12.40380573272705,0) translate(0,-4.943875789642334) ">background</title>
    <rect stroke="null" x="-44.69399" y="-27.43837" width="22" height="22" id="svg_18" fill="none"/>
    <g stroke="null" id="svg_17" display="none">
     <rect stroke="null" id="svg_21" width="800" height="600" x="-43.69399" y="-26.43837" stroke-width="0" fill="url(#gridpattern)"/>
    </g>
   </g>
   <g stroke="null" transform="matrix(1.0551912385048603,0,0,1.6343258426018419,45.18854672753535,37.595529409621214) " id="svg_22">
    <title stroke="null" transform="translate(1.5905379056930542,-1.2836498022079468) translate(-5.386195182800293,-4.17307186126709) translate(-0.2211635559797287,-0.1427927315235138) translate(0.8846542239189148,0.856756329536438) translate(6.297701358795166,0.33883896470069885) translate(-5.475725173950195,0) translate(-8.921743392944336,-5.082584381103516) translate(-7.242325782775879,-24.841026306152344) translate(4.1126933097839355,-0.18966658413410187) translate(-9.694206237792969,15.742326736450195) translate(-7.165840148925781,-14.34238338470459) translate(-89.38347625732422,-30.92467498779297) translate(88.97490692138672,42.397438049316406) translate(0.23999999463558197,-2.5) translate(0.10000000149011612,2.6500000953674316) translate(-12.40380573272705,0) translate(0,-4.943875789642334) ">Layer 1</title>
    <path stroke="#000000" fill="#000000" stroke-width="1.5" stroke-opacity="null" d="m-6.4795,-16.30774l0,-0.10628l-0.57014,0.3292l0.57014,0.3292l0,-0.11405c0.15471,-0.00007 0.42632,0.01315 0.42632,0.10686c0,0.13093 -0.28366,0.20078 -0.28366,0.20078l0,0.10039c0,0 0.6372,0.02177 0.6372,-0.46265c0,-0.38058 -0.54574,-0.39488 -0.77986,-0.38346l0,0.00001z" id="svg_16"/>
    <path stroke="#000000" fill="#000000" stroke-width="1.5" stroke-opacity="null" d="m-9.7824,-21.75753l0,-0.10628l-0.57014,0.3292l0.57014,0.3292l0,-0.11405c0.15471,-0.00007 0.42632,0.01315 0.42632,0.10686c0,0.13093 -0.28366,0.20078 -0.28366,0.20078l0,0.10039c0,0 0.6372,0.02177 0.6372,-0.46265c0,-0.38058 -0.54574,-0.39488 -0.77986,-0.38346l0,0.00001z" id="svg_15"/>
    <path stroke="#000000" fill="#000000" stroke-opacity="null" fill-opacity="null" d="m-8.61501,-8.447c0.05303,0.00007 0.10369,0.00925 0.15167,0.02459l-0.03797,0.06567l0.26953,0l-0.0674,-0.11673l-0.06735,-0.11669l-0.03545,0.06149c-0.06644,-0.02429 -0.13807,-0.03789 -0.21298,-0.03789c-0.34478,0 -0.62424,0.27947 -0.62424,0.62425c0,0.1431 0.04867,0.27457 0.12966,0.37991l0.09492,-0.07288c-0.06551,-0.08513 -0.10489,-0.19135 -0.10511,-0.30699c0.00048,-0.27875 0.226,-0.5043 0.50471,-0.50473l0,0l0.00001,0zm0.49464,0.12492l-0.09492,0.07291c0.06549,0.08509 0.10488,0.19125 0.10506,0.30693c-0.00048,0.27875 -0.226,0.50427 -0.50473,0.50473c-0.04939,-0.00006 -0.09665,-0.0081 -0.14169,-0.02153l0.03573,-0.06179l-0.26953,0l0.06735,0.11666l0.0674,0.11682l0.03758,-0.06521c0.06373,0.02219 0.13193,0.03456 0.20317,0.03459c0.34483,-0.00006 0.62424,-0.27954 0.62432,-0.62432c-0.00008,-0.14309 -0.04878,-0.27454 -0.12973,-0.37981l0,0l-0.00001,0.00002z" id="svg_14"/>
    <path stroke="#000000" fill="#000000" stroke-width="null" stroke-opacity="null" fill-opacity="null" d="m-51.07121,-31.30826l-0.42374,0.42371l0.42374,0.42371l-0.24216,0.24229l-0.6659,-0.66601l0.6659,-0.66606" id="svg_13"/>
    <path stroke="#000000" fill="#000000" stroke-width="null" stroke-opacity="null" fill-opacity="null" d="m-2.6011,-16.4452l-0.42374,0.42371l0.42374,0.42371l-0.24216,0.24229l-0.6659,-0.66601l0.6659,-0.66606" id="svg_12"/>
    <path stroke="#000000" fill="#000000" stroke-width="0" stroke-opacity="null" fill-opacity="null" d="m-34.44606,-8.34787c-1.60521,-0.27848 -2.97963,-1.52473 -3.39621,-3.10318c-0.19812,-0.80571 -0.08212,-1.65096 -0.12116,-2.47415c-0.00737,-2.11325 -0.01113,-4.22652 -0.01666,-6.33978c0.18848,-0.65597 0.98402,-1.00098 1.58918,-0.67667c0.05264,-0.17232 0.01406,-0.48135 0.03251,-0.70521c-0.10732,-0.61528 0.33153,-1.24117 0.96893,-1.28281c0.36579,-0.00238 0.80373,0.2756 0.63702,-0.33996c-0.11303,-0.63399 0.38459,-1.35613 1.06518,-1.29769c0.65039,-0.06036 1.14428,0.6015 1.06581,1.21499c0.03025,0.36624 0.82333,-0.23998 1.10057,0.16718c0.3536,0.20986 0.59547,0.61027 0.5287,1.02426c0.0205,1.13407 -0.02761,2.27532 0.05157,3.40392c0.58155,-0.29439 1.41019,0.06733 1.5293,0.71497c-0.01317,2.01214 0.03358,4.0257 -0.03538,6.03667c-0.23409,2.0685 -2.20139,3.8177 -4.30161,3.69347c-0.23273,0.00062 -0.46751,0.00291 -0.69776,-0.03604l0,0l0.00001,0.00003zm1.43613,-0.54943c1.76296,-0.29794 3.14988,-2.00237 3.05055,-3.79465c0.01348,-1.73228 0.0683,-3.46712 0.00411,-5.19823c-0.04102,-0.63293 -1.09026,-0.4797 -1.02242,0.10432c-0.00032,1.28388 -0.00064,2.56777 -0.00096,3.85165c-0.32668,0.33688 -0.9114,0.13398 -1.30313,0.40778c-0.87085,0.37995 -1.4242,1.31034 -1.44318,2.24712c-0.46969,0.7283 -0.68234,-0.45696 -0.41292,-0.84743c0.31148,-1.17782 1.40752,-2.05663 2.61142,-2.17203c-0.00985,-2.70967 0.0255,-5.42031 -0.03163,-8.12919c-0.34086,-0.76734 -1.29601,-0.09431 -1.0418,0.57762c-0.02505,2.04862 -0.00261,4.09773 -0.03766,6.14621c-0.22768,0.36423 -0.65909,0.01881 -0.51837,-0.31732c-0.00973,-2.5662 -0.01945,-5.13239 -0.02918,-7.69859c-0.18268,-0.45321 -0.992,-0.3824 -1.00473,0.11501c-0.01001,2.64826 -0.02001,5.29652 -0.03002,7.94478c-0.21296,0.3 -0.65039,0.03917 -0.53259,-0.2883c-0.00787,-1.99484 0.02189,-3.99054 -0.03011,-5.98466c-0.0133,-0.59353 -1.00712,-0.57883 -1.02038,-0.02839c-0.01988,2.0448 0.00533,4.09069 -0.05452,6.1346c0.05635,0.52061 -0.67696,0.27227 -0.508,-0.12154c-0.00896,-1.3895 0.02442,-2.78053 -0.03225,-4.16877c-0.33425,-0.85658 -1.33381,-0.14941 -1.05508,0.56254c0.00335,2.46394 -0.02246,4.9291 0.03985,7.39227c0.15286,1.8925 1.97483,3.45079 3.87021,3.32642c0.17877,-0.00745 0.357,-0.02786 0.5328,-0.06121l0,0l-0.00001,-0.00001z" id="svg_11" transform="rotate(-90 -33.69398498535157,-16.4383659362793) "/>
   </g>
  </g>
 </g>
</svg>