<svg width="100" height="100" xmlns="http://www.w3.org/2000/svg">
 <!-- Created with Method Draw - http://github.com/duopixel/Method-Draw/ -->
 <g>
  <title>background</title>
  <rect fill="none" id="canvas_background" height="102" width="102" y="-1" x="-1"/>
  <g display="none" overflow="visible" y="0" x="0" height="100%" width="100%" id="canvasGrid">
   <rect fill="url(#gridpattern)" stroke-width="0" y="0" x="0" height="100%" width="100%"/>
  </g>
 </g>
 <g>
  <title>Layer 1</title>
  <path stroke="#000" transform="rotate(-90 49.99999618530274,50.000003814697266) " id="svg_3" d="m45.4768,98.65871c-9.65422,-1.67486 -17.92041,-9.17021 -20.42583,-18.66346c-1.19158,-4.84576 -0.49388,-9.92935 -0.72872,-14.88027c-0.0443,-12.70974 -0.06692,-25.41955 -0.10021,-38.12933c1.13358,-3.94523 5.91818,-6.02021 9.55784,-4.06967c0.31662,-1.03637 0.08455,-2.895 0.19553,-4.24133c-0.64544,-3.70048 1.99393,-7.46478 5.82744,-7.7152c2.19997,-0.01431 4.83385,1.65757 3.83125,-2.04463c-0.67979,-3.81304 2.31304,-8.15617 6.40635,-7.80468c3.91163,-0.363 6.88206,3.61758 6.4101,7.30734c0.18196,2.20271 4.95177,-1.44328 6.61917,1.0055c2.12665,1.26214 3.58137,3.67037 3.17976,6.1602c0.12328,6.82061 -0.16607,13.68446 0.31017,20.47222c3.49763,-1.77053 8.48131,0.40494 9.19768,4.30006c-0.07923,12.1016 0.20196,24.21175 -0.2128,36.30639c-1.40791,12.44058 -13.23985,22.9608 -25.8712,22.21364c-1.39974,0.00373 -2.81172,0.01748 -4.19654,-0.21677l0,0zm8.63731,-3.30446c10.60301,-1.79189 18.94432,-12.04285 18.34696,-22.82217c0.08108,-10.41847 0.4108,-20.85228 0.02473,-31.26372c-0.2467,-3.80663 -6.55713,-2.88507 -6.14914,0.62739c-0.00192,7.72166 -0.00386,15.44332 -0.0058,23.16498c-1.96475,2.02612 -5.48142,0.80579 -7.8374,2.45249c-5.23756,2.28513 -8.56559,7.8808 -8.67975,13.51486c-2.82488,4.38019 -4.10379,-2.74829 -2.48343,-5.09672c1.87332,-7.08379 8.46528,-12.36919 15.70589,-13.06327c-0.05924,-16.29675 0.15338,-32.59937 -0.19024,-48.8914c-2.05005,-4.615 -7.79462,-0.56721 -6.26571,3.474c-0.15063,12.32105 -0.01567,24.64497 -0.22649,36.96514c-1.36932,2.19059 -3.96399,0.1131 -3.11765,-1.90848c-0.0585,-15.43389 -0.11701,-30.86777 -0.17551,-46.30166c-1.09867,-2.72573 -5.96616,-2.29987 -6.04277,0.69171c-0.06018,15.92744 -0.12035,31.85487 -0.18053,47.78231c-1.28081,1.80429 -3.91164,0.2356 -3.20317,-1.73391c-0.04731,-11.99756 0.13167,-24.00031 -0.18111,-35.99358c-0.08002,-3.56966 -6.05713,-3.48126 -6.1369,-0.17076c-0.11954,12.29803 0.03203,24.60265 -0.32792,36.89534c0.33889,3.13111 -4.07142,1.63754 -3.05524,-0.73101c-0.05389,-8.35688 0.14686,-16.72294 -0.19399,-25.07223c-2.01028,-5.15173 -8.02196,-0.89862 -6.34555,3.38329c0.02016,14.81886 -0.13508,29.64511 0.23968,44.45938c0.91937,11.38204 11.87726,20.75409 23.27663,20.00612c1.07517,-0.0448 2.14714,-0.16758 3.20441,-0.36813l0,0z" fill="#000000"/>
 </g>
</svg>