<svg width="10" height="10" xmlns="http://www.w3.org/2000/svg">
 <!-- Created with Method Draw - http://github.com/duopixel/Method-Draw/ -->
 <g>
  <title>background</title>
  <rect fill="none" id="canvas_background" height="12" width="12" y="-1" x="-1"/>
  <g display="none" overflow="visible" y="0" x="0" height="100%" width="100%" id="canvasGrid">
   <rect fill="url(#gridpattern)" stroke-width="0" y="0" x="0" height="100%" width="100%"/>
  </g>
 </g>
 <g>
  <title>Layer 1</title>
  <path stroke="#000" id="svg_2" d="m8.67441,5.26771l1.26784,-0.67055c-0.02492,-0.24845 -0.07309,-0.48946 -0.13335,-0.72638l-1.40839,-0.19503c-0.1219,-0.29365 -0.28287,-0.56601 -0.4721,-0.81602l0.53686,-1.32035c-0.17653,-0.17216 -0.36717,-0.32912 -0.56783,-0.47355l-1.1959,0.75077c-0.28044,-0.14748 -0.58259,-0.25949 -0.89977,-0.33143l-0.43218,-1.3389c-0.12257,-0.00926 -0.24511,-0.01903 -0.3701,-0.01903s-0.24719,0.00955 -0.37013,0.01903l-0.4279,1.32704c-0.32569,0.06963 -0.6345,0.18295 -0.92215,0.33224l-1.17728,-0.73973c-0.2004,0.14443 -0.39104,0.30139 -0.56755,0.47355l0.52208,1.28388c-0.20348,0.26079 -0.37384,0.54854 -0.5018,0.85866l-1.36392,0.18863c-0.06,0.23659 -0.10842,0.47735 -0.13309,0.72635l1.22416,0.64768c0.01387,0.34094 0.0704,0.67137 0.17049,0.98253l-0.92344,1.02104c0.10742,0.2228 0.22702,0.43887 0.36537,0.64159l1.35955,-0.29187c0.22291,0.24254 0.47688,0.45504 0.75708,0.63077l-0.05153,1.39103c0.22328,0.1007 0.45528,0.18499 0.69436,0.25235l0.86011,-1.10559c0.15261,0.01948 0.30715,0.03261 0.46477,0.03261c0.17076,0 0.33775,-0.01543 0.50205,-0.038l0.86459,1.11172c0.23945,-0.06729 0.4711,-0.15157 0.69436,-0.25228l-0.05253,-1.41601c0.26707,-0.1729 0.50924,-0.37975 0.72274,-0.61329l1.39491,0.29931c0.13835,-0.20268 0.25796,-0.41852 0.36535,-0.64151l-0.95335,-1.05447c0.09158,-0.29473 0.14274,-0.60586 0.15763,-0.9268l0,0zm-2.10724,1.61073l-0.6011,0.39132l-0.36972,-0.56805c-0.19233,0.07398 -0.3994,0.11896 -0.61769,0.11896c-0.95334,0 -1.72594,-0.7729 -1.72594,-1.72609c0,-0.95323 0.7726,-1.72583 1.72594,-1.72583c0.95309,0 1.72597,0.7726 1.72597,1.72583c0,0.47634 -0.19296,0.90695 -0.50488,1.21937l0.36742,0.56448z" stroke-width="0.1" fill="#000000"/>
  <path stroke="#000" id="svg_4" d="m2.39073,5l0,0c0,-1.44106 1.16821,-2.60927 2.60927,-2.60927l0,0c0.69202,0 1.3557,0.2749 1.84503,0.76424c0.48933,0.48933 0.76424,1.15301 0.76424,1.84503l0,0c0,1.44106 -1.16821,2.60927 -2.60927,2.60927l0,0c-1.44106,0 -2.60927,-1.16821 -2.60927,-2.60927zm1.30464,0l0,0c0,0.72053 0.58411,1.30464 1.30464,1.30464c0.72053,0 1.30464,-0.58411 1.30464,-1.30464c0,-0.72053 -0.58411,-1.30464 -1.30464,-1.30464l0,0c-0.72053,0 -1.30464,0.58411 -1.30464,1.30464z" fill-opacity="null" stroke-opacity="null" stroke-width="0.1" fill="#000000"/>
 </g>
</svg>