<svg width="10" height="10" xmlns="http://www.w3.org/2000/svg">
 <!-- Created with Method Draw - http://github.com/duopixel/Method-Draw/ -->

 <g>
  <title>background</title>
  <rect x="-1" y="-1" width="12" height="12" id="canvas_background" fill="none"/>
 </g>
 <g>
  <title>Layer 1</title>
  <rect fill="#ffcccc" stroke-width="0.1" x="1" y="5" width="8" height="1.12872" id="svg_4" stroke="#000000"/>
  <ellipse fill="#ffcccc" stroke="#000000" stroke-width="0.1" cx="5" cy="6" id="svg_3" rx="4" ry="3"/>
  <ellipse stroke="#000000" fill="#ffcccc" stroke-width="0.1" cx="5" cy="5" id="svg_1" rx="4" ry="3"/>
  <path stroke="#000000" id="svg_6" d="m3.09783,4.65506l1.45314,0l0.44903,-1.11627l0.44903,1.11627l1.45314,0l-1.17561,0.68989l0.44906,1.11627l-1.17561,-0.68991l-1.17561,0.68991l0.44906,-1.11627l-1.17561,-0.68989z" fill-opacity="null" stroke-opacity="null" stroke-width="0.1" fill="#ffcccc"/>
  <path id="svg_8" d="m4.82708,8.4255l0.1321,0l0.04082,-0.1255l0.04082,0.1255l0.1321,0l-0.10687,0.07756l0.04082,0.1255l-0.10687,-0.07756l-0.10687,0.07756l0.04082,-0.1255l-0.10687,-0.07756z" fill-opacity="null" stroke-opacity="null" stroke-width="0.1" stroke="#000000" fill="#ffcccc"/>
 </g>
</svg>