<svg width="70" height="70" xmlns="http://www.w3.org/2000/svg">
 <!-- Created with Method Draw - http://github.com/duopixel/Method-Draw/ -->
 <g>
  <title>Layer 1</title>
  <rect stroke="#000000" id="svg_3" height="71.49864" width="72.17983" y="-0.90592" x="-1.23285" stroke-opacity="0" fill="#cda871"/>
  <ellipse ry="5" rx="5" id="svg_36" cy="5" cx="5" fill-opacity="null" stroke-opacity="0" stroke-width="null" stroke="#000000" fill="#553e2b"/>
  <ellipse ry="5" rx="5" id="svg_37" cy="5" cx="25" fill-opacity="null" stroke-opacity="0" stroke-width="null" stroke="#000000" fill="#553e2b"/>
  <ellipse ry="5" rx="5" id="svg_38" cy="5" cx="45" fill-opacity="null" stroke-opacity="0" stroke-width="null" stroke="#000000" fill="#553e2b"/>
  <ellipse ry="5" rx="5" id="svg_40" cy="5" cx="65" fill-opacity="null" stroke-opacity="0" stroke-width="null" stroke="#000000" fill="#553e2b"/>
  <ellipse ry="5" rx="5" id="svg_41" cy="15" cx="15" fill-opacity="null" stroke-opacity="0" stroke-width="null" stroke="#000000" fill="#553e2b"/>
  <ellipse ry="5" rx="5" id="svg_42" cy="15" cx="35" fill-opacity="null" stroke-opacity="0" stroke-width="null" stroke="#000000" fill="#553e2b"/>
  <ellipse ry="5" rx="5" id="svg_43" cy="15" cx="55" fill-opacity="null" stroke-opacity="0" stroke-width="null" stroke="#000000" fill="#553e2b"/>
  <ellipse ry="5" rx="5" id="svg_51" cy="25" cx="5" fill-opacity="null" stroke-opacity="0" stroke-width="null" stroke="#000000" fill="#553e2b"/>
  <ellipse ry="5" rx="5" id="svg_52" cy="35" cx="15" fill-opacity="null" stroke-opacity="0" stroke-width="null" stroke="#000000" fill="#553e2b"/>
  <ellipse ry="5" rx="5" id="svg_53" cy="45" cx="5" fill-opacity="null" stroke-opacity="0" stroke-width="null" stroke="#000000" fill="#553e2b"/>
  <ellipse ry="5" rx="5" id="svg_54" cy="55" cx="15" fill-opacity="null" stroke-opacity="0" stroke-width="null" stroke="#000000" fill="#553e2b"/>
  <ellipse ry="5" rx="5" id="svg_55" cy="65" cx="5" fill-opacity="null" stroke-opacity="0" stroke-width="null" stroke="#000000" fill="#553e2b"/>
  <ellipse ry="5" rx="5" id="svg_56" cy="25" cx="25" fill-opacity="null" stroke-opacity="0" stroke-width="null" stroke="#000000" fill="#553e2b"/>
  <ellipse ry="5" rx="5" id="svg_57" cy="25" cx="45" fill-opacity="null" stroke-opacity="0" stroke-width="null" stroke="#000000" fill="#553e2b"/>
  <ellipse ry="5" rx="5" id="svg_58" cy="25" cx="65" fill-opacity="null" stroke-opacity="0" stroke-width="null" stroke="#000000" fill="#553e2b"/>
  <ellipse ry="5" rx="5" id="svg_59" cy="35" cx="35" fill-opacity="null" stroke-opacity="0" stroke-width="null" stroke="#000000" fill="#553e2b"/>
  <ellipse ry="5" rx="5" id="svg_60" cy="35" cx="55" fill-opacity="null" stroke-opacity="0" stroke-width="null" stroke="#000000" fill="#553e2b"/>
  <ellipse ry="5" rx="5" id="svg_62" cy="45" cx="25" fill-opacity="null" stroke-opacity="0" stroke-width="null" stroke="#000000" fill="#553e2b"/>
  <ellipse ry="5" rx="5" id="svg_63" cy="45" cx="45" fill-opacity="null" stroke-opacity="0" stroke-width="null" stroke="#000000" fill="#553e2b"/>
  <ellipse ry="5" rx="5" id="svg_64" cy="45" cx="65" fill-opacity="null" stroke-opacity="0" stroke-width="null" stroke="#000000" fill="#553e2b"/>
  <ellipse ry="5" rx="5" id="svg_65" cy="55" cx="35" fill-opacity="null" stroke-opacity="0" stroke-width="null" stroke="#000000" fill="#553e2b"/>
  <ellipse ry="5" rx="5" id="svg_66" cy="55" cx="55" fill-opacity="null" stroke-opacity="0" stroke-width="null" stroke="#000000" fill="#553e2b"/>
  <ellipse ry="5" rx="5" id="svg_67" cy="65" cx="25" fill-opacity="null" stroke-opacity="0" stroke-width="null" stroke="#000000" fill="#553e2b"/>
  <ellipse ry="5" rx="5" id="svg_68" cy="65" cx="45" fill-opacity="null" stroke-opacity="0" stroke-width="null" stroke="#000000" fill="#553e2b"/>
  <ellipse ry="5" rx="5" id="svg_69" cy="65" cx="65" fill-opacity="null" stroke-opacity="0" stroke-width="null" stroke="#000000" fill="#553e2b"/>
 </g>
</svg>